<svg xmlns="http://www.w3.org/2000/svg" version="1.1" xmlns:xlink="http://www.w3.org/1999/xlink" width="1500" height="1500" viewBox="0 0 1500 1500"><rect width="1500" height="1500" x="0" y="0" id="background" stroke="transparent" fill="#6c6c6c"></rect><svg xml:space="preserve" width="1000" height="1000" data-version="2" data-id="lg_AAjErkMvVJ2cZz7Uug" viewBox="0 0 536 372" x="250" y="250"><rect width="100%" height="100%" fill="transparent"></rect><path fill="#101010" d="M277.357 3.59h126.22v174.74q0 92.56-47.77 141.32-47.76 48.76-151.22 48.76-59.4 0-109.64-17.33-50.24-17.32-89.35-45.04 9.41-30.69 15.35-58.91 5.94-28.21 8.91-61.87 50.98 41.08 94.05 56.92 43.06 15.84 82.17 15.84 40.59 0 57.91-18.31 17.33-18.32 17.82-62.87v-37.62q0-80.19-4.45-135.63" paint-order="stroke"></path><circle r="40.44" fill="#101010" transform="translate(482.12 89.88)scale(1.1942)"></circle></svg></svg>